# xmcd CD database file
#
# Track frame offsets:
#	150
#	19641
#	45771
#	63019
#	87964
#	108367
#	126792
#	156168
#	182207
#	208789
#	229666
#	257028
#
# Disc length: 3719 seconds
#
# Revision: 0
# Processed by: cddbd v1.5.2PL0 Copyright (c) Steve Scherf et al.
# Submitted via: CDex 1.51
#
DISCID=920e850c
DTITLE=the oriental jazzband - live in belgium
DYEAR=2007
DGENRE=Jazz
TTITLE0=Someday you'll be sorry
TTITLE1=Smiles
TTITLE2=Shout 'em ount Tilly
TTITLE3=Black and blue
TTITLE4=There's rainbow around my shoulder
TTITLE5=You meet the nicest people in your dreams
TTITLE6=My sin was lovin' you
TTITLE7=Anytime
TTITLE8=Over the waves
TTITLE9=I'm gonna sit right down
TTITLE10=The sheik of Araby
TTITLE11=Mack the knife
EXTD=YEAR: 2007
EXTT0=
EXTT1=
EXTT2=
EXTT3=
EXTT4=
EXTT5=
EXTT6=
EXTT7=
EXTT8=
EXTT9=
EXTT10=
EXTT11=
PLAYORDER=
